<?xml version="1.0" encoding="UTF-8"?>
<svg version="1.1" xmlns="http://www.w3.org/2000/svg" width="697" height="655">
<path d="M0 0 C230.01 0 460.02 0 697 0 C697 216.15 697 432.3 697 655 C466.99 655 236.98 655 0 655 C0 438.85 0 222.7 0 0 Z " fill="#FEFEFE" transform="translate(0,0)"/>
<path d="M0 0 C1.13308594 -0.01611328 2.26617187 -0.03222656 3.43359375 -0.04882812 C22.78361742 -0.05991061 36.02624376 7.22647775 49.5 20.3125 C51.8039145 22.35132789 54.14526242 24.33237976 56.5 26.3125 C56.88865234 25.19875 56.88865234 25.19875 57.28515625 24.0625 C60.6527806 16.43932463 67.45062441 12.33052882 74.8984375 9.2734375 C86.04832382 5.15501102 98.80017252 3.57747539 110.5 6.3125 C107.9542813 8.88604077 105.39826064 11.4064686 102.73828125 13.86328125 C96.94443263 19.27441513 92.13952973 24.8201487 87.9375 31.5625 C87.53249268 32.21130127 87.12748535 32.86010254 86.71020508 33.52856445 C82.07811075 41.269671 80.0635649 48.34106422 79.3125 57.3125 C79.1897168 58.61767578 79.1897168 58.61767578 79.06445312 59.94921875 C78.86641309 62.06941206 78.68179444 64.19085199 78.5 66.3125 C79.23234863 66.58852051 79.96469727 66.86454102 80.71923828 67.14892578 C83.32012958 68.23723552 85.59021835 69.46184617 87.9921875 70.9296875 C88.85021973 71.44829346 89.70825195 71.96689941 90.59228516 72.5012207 C91.51058105 73.05769287 92.42887695 73.61416504 93.375 74.1875 C110.3866603 84.33916217 127.65553486 93.7419133 146.31713867 100.51220703 C147.72059113 101.02674871 149.11322351 101.57241827 150.48950195 102.15576172 C157.33613871 104.85339032 164.39251359 104.93857907 171.65106201 105.22137451 C175.56202798 105.37724521 179.47033124 105.58259815 183.37890625 105.7890625 C184.15947388 105.82996002 184.9400415 105.87085754 185.7442627 105.91299438 C200.7617724 106.73305174 215.6528875 108.63502423 230.4375 111.375 C231.75306885 111.61839111 231.75306885 111.61839111 233.09521484 111.86669922 C233.89781738 112.02541504 234.70041992 112.18413086 235.52734375 112.34765625 C236.22593506 112.4856665 236.92452637 112.62367676 237.64428711 112.76586914 C239.5 113.3125 239.5 113.3125 242.5 115.3125 C243.51739854 119.89537629 242.8559663 123.61328048 240.75 127.75 C238.10560623 130.76167068 236.25314671 132.17587079 232.21549988 132.49053955 C231.37634537 132.45660095 230.53719086 132.42266235 229.67260742 132.38769531 C228.23149849 132.33708954 228.23149849 132.33708954 226.76127625 132.28546143 C225.71985977 132.23766541 224.6784433 132.18986938 223.60546875 132.140625 C222.50826004 132.09814636 221.41105133 132.05566772 220.28059387 132.01190186 C217.93921802 131.91921583 215.5980426 131.82134645 213.25708008 131.71875 C209.79477747 131.56719582 206.33217973 131.43040417 202.86914062 131.296875 C185.38238549 130.58292753 167.97515226 129.43992918 150.5 128.3125 C150.5 246.1225 150.5 363.9325 150.5 485.3125 C147.08601286 483.94690514 143.98637154 482.60002651 140.75390625 480.9140625 C139.84552002 480.440896 138.93713379 479.96772949 138.0012207 479.48022461 C136.54655396 478.71657593 136.54655396 478.71657593 135.0625 477.9375 C134.04696045 477.40584229 133.0314209 476.87418457 131.98510742 476.32641602 C121.42259029 470.77764339 110.95336426 465.06356401 100.5 459.3125 C93.9 455.6825 87.3 452.0525 80.5 448.3125 C80.5 342.3825 80.5 236.4525 80.5 127.3125 C79.84 127.3125 79.18 127.3125 78.5 127.3125 C78.55888824 175.53504945 78.63344171 223.75755259 78.72898628 271.98004409 C78.74025436 277.6739517 78.75139283 283.36785956 78.76245117 289.06176758 C78.7657567 290.76208988 78.7657567 290.76208988 78.769129 292.49676212 C78.80449542 310.84779238 78.82936326 329.19882259 78.85034702 347.54987428 C78.87211427 366.38161132 78.90517353 385.21330416 78.94870156 404.04500359 C78.97520228 415.66390664 78.9929093 427.28275462 78.99934604 438.90168639 C79.00460473 446.87066157 79.02083795 454.83956747 79.04566566 462.80850551 C79.05966406 467.40523186 79.06885764 472.00183423 79.06500816 476.59858322 C79.06158721 480.81144435 79.07202432 485.02404111 79.09323552 489.23684814 C79.09848522 490.7565402 79.09875752 492.27625985 79.09339563 493.79595152 C79.03966184 510.76058143 83.2606594 526.82672973 95.5 539.3125 C97.50953078 540.69046396 99.19593033 541.46954768 101.5 542.3125 C101.5 542.9725 101.5 543.6325 101.5 544.3125 C100.3140625 544.45945312 99.128125 544.60640625 97.90625 544.7578125 C73.74148669 548.00071369 52.94994417 557.46300717 35.8215332 575.07104492 C19.17462852 592.17559647 -0.48933192 603.2567777 -24.92578125 603.7109375 C-27.14300602 603.72629062 -29.35873225 603.7225119 -31.57592773 603.70361328 C-33.80059805 603.68758575 -36.02343239 603.70353138 -38.24804688 603.72265625 C-48.60299677 603.7354776 -58.37054748 602.41584867 -68.5 600.3125 C-68.5 599.6525 -68.5 598.9925 -68.5 598.3125 C-67.35724609 597.80203125 -67.35724609 597.80203125 -66.19140625 597.28125 C-53.32028984 591.23937763 -46.13418703 583.85955582 -39.5 571.3125 C-39.15018066 570.66555176 -38.80036133 570.01860352 -38.43994141 569.35205078 C-25.89274711 545.62903353 -26.90013215 519.23107905 -26.95119452 493.13244414 C-26.95620136 488.30252013 -26.93797863 483.4726715 -26.92277527 478.64277649 C-26.89960949 470.30269542 -26.89070818 461.96270095 -26.89188385 453.62258911 C-26.89356238 441.56465415 -26.87312443 429.50683368 -26.84752855 417.44892943 C-26.8065768 397.87920723 -26.78316762 378.30950582 -26.77099609 358.73974609 C-26.75914433 339.74525967 -26.73890287 320.75081228 -26.70751953 301.75634766 C-26.70558343 300.58278977 -26.70364733 299.40923188 -26.70165256 298.20011163 C-26.69188706 292.31189847 -26.68195812 286.42368561 -26.67194796 280.53547287 C-26.58929756 231.79450103 -26.53520368 183.05352763 -26.5 134.3125 C-27.51682861 134.38544785 -28.53365723 134.45839569 -29.58129883 134.53355408 C-39.23005304 135.22566451 -48.8788627 135.91699743 -58.52772522 136.6075964 C-63.48660992 136.96254351 -68.44547564 137.31775122 -73.40429688 137.67358398 C-78.20237746 138.01787227 -83.00050935 138.36143751 -87.79867554 138.70453072 C-89.61642244 138.83463089 -91.43415166 138.96497841 -93.25186157 139.09559441 C-109.64183385 140.27304738 -126.01211052 141.40920025 -142.44140625 141.859375 C-143.17813631 141.88006798 -143.91486637 141.90076096 -144.67392159 141.92208099 C-163.92602344 142.4525216 -183.17900525 142.55524693 -202.4375 142.5625 C-203.34171818 142.56323643 -204.24593636 142.56397285 -205.17755508 142.5647316 C-231.57589909 142.58216158 -257.82394907 142.26898085 -284.12207031 139.72705078 C-288.50201262 139.30381794 -292.88625392 138.95932946 -297.2734375 138.62109375 C-314.24155907 137.2751542 -330.8531173 134.88072438 -347.5 131.3125 C-348.28745605 131.14637207 -349.07491211 130.98024414 -349.88623047 130.80908203 C-367.92953959 126.92061519 -393.14446381 120.66803619 -406.5 107.3125 C-406.8125 104.875 -406.8125 104.875 -406.5 102.3125 C-405.20703125 100.671875 -405.20703125 100.671875 -403.5 99.3125 C-400.35733362 99.04158048 -397.63108384 99.08196505 -394.5 99.3125 C-392.82357422 99.43431641 -392.82357422 99.43431641 -391.11328125 99.55859375 C-378.20812891 100.80416567 -365.68450404 103.76626784 -353.03857422 106.54101562 C-330.67897849 111.41588264 -308.20770982 114.60663884 -285.5 117.3125 C-284.46520508 117.43753906 -283.43041016 117.56257813 -282.36425781 117.69140625 C-212.37287526 125.87995749 -140.69712887 120.98922287 -70.66088867 115.67089844 C-55.94698538 114.56074855 -41.24798376 113.79860005 -26.5 113.3125 C-26.88455182 108.83197034 -27.27547652 104.35205201 -27.671875 99.87255859 C-27.80538963 98.35415058 -27.93727426 96.83559819 -28.06738281 95.31689453 C-29.76680162 75.51212924 -31.96235775 54.80504452 -48.125 41 C-56.02442462 35.12359876 -65.2729742 31.56909734 -74.5 28.3125 C-73.14134427 24.23653281 -70.48120087 23.17291402 -66.9375 21.125 C-66.26638184 20.73207764 -65.59526367 20.33915527 -64.90380859 19.93432617 C-54.85703053 14.12716249 -44.6741305 8.89567908 -33.75 4.9375 C-33.1017627 4.69878174 -32.45352539 4.46006348 -31.78564453 4.21411133 C-21.42653448 0.64178166 -10.88119184 -0.03094764 0 0 Z " fill="#010101" transform="translate(408.5,22.6875)"/>
<path d="M0 0 C3.47536421 0.1204639 6.95004271 0.07851424 10.42695069 0.06194234 C16.24613054 0.05774202 22.053382 0.16982562 27.86925721 0.36063313 C34.53589245 0.57823586 41.18620956 0.62084847 47.85582298 0.5689308 C54.36238236 0.52111488 60.86343279 0.58254201 67.36903787 0.69669461 C70.09791479 0.74367726 72.82362881 0.75720119 75.55284142 0.74168897 C88.94626712 0.75427684 99.18445402 1.15244468 109.29466939 10.66745782 C112.94057965 14.49589319 116.34694057 18.45036708 119.5350287 22.6675179 C120.64006392 21.73135861 121.74351129 20.79332486 122.84630799 19.85452962 C123.46096421 19.33236867 124.07562043 18.81020772 124.7089026 18.27222371 C127.91539597 15.45452205 130.84105632 12.3662617 133.79088807 9.2847054 C135.00337761 8.04322526 136.26555969 6.85067143 137.5350287 5.6675179 C138.1950287 5.6675179 138.8550287 5.6675179 139.5350287 5.6675179 C139.5350287 30.7475179 139.5350287 55.8275179 139.5350287 81.6675179 C131.71993602 74.96886703 131.71993602 74.96886703 128.31237245 70.30472493 C105.17245162 38.81473436 105.17245162 38.81473436 71.3968451 22.27835774 C48.73421788 19.30962125 25.09581502 21.75236376 2.5350287 24.6675179 C3.06778287 25.00070027 3.60053704 25.33388265 4.14943528 25.67716146 C11.86110598 30.85729654 19.50089654 37.26555013 21.62446046 46.69730306 C23.47345363 57.72130738 23.089461 69.11016056 22.95288777 80.24707723 C22.90681641 85.1875302 22.94971506 90.12742715 22.97783875 95.06790853 C23.01044727 103.36003808 22.96781411 111.64926785 22.88170838 119.9409554 C22.78375324 129.48295386 22.81549574 139.0180286 22.91458368 148.55985951 C22.99668337 156.80052215 23.0075992 165.03911897 22.96068764 173.2800591 C22.93284325 178.18095306 22.9282469 183.07860907 22.98834443 187.97928548 C23.34549901 221.52533731 23.34549901 221.52533731 13.9286406 231.84439778 C10.3539356 235.15391122 6.6659244 238.08407191 2.5350287 240.6675179 C14.47872613 242.41899077 26.41924671 243.57359522 38.4725287 244.2300179 C39.36218575 244.27881093 40.25184281 244.32760396 41.16845918 244.37787557 C63.874029 245.4771325 82.00990003 243.54944396 99.43737245 227.97611165 C113.26005474 215.3129228 125.43211174 200.71729282 136.7824347 185.83145833 C137.36079072 185.11735799 137.93914674 184.40325765 138.5350287 183.6675179 C138.8650287 183.6675179 139.1950287 183.6675179 139.5350287 183.6675179 C139.5350287 209.0775179 139.5350287 234.4875179 139.5350287 260.6675179 C134.46517348 256.32192771 129.91470093 252.10691861 125.45495057 247.19681478 C123.96038897 245.57708757 123.96038897 245.57708757 121.5350287 243.6675179 C118.88441076 243.85122636 117.81810536 244.37082581 115.97835374 246.29906583 C115.47077657 246.98898051 114.9631994 247.6788952 114.4402411 248.38971639 C107.68462133 256.794959 101.80552455 262.43554739 90.79972672 263.80966687 C85.10114114 264.2048268 79.42942753 264.36065341 73.71749425 264.34623027 C70.94753224 264.34755313 68.17918841 264.39814532 65.40971279 264.44646204 C58.84897089 264.55821773 52.29229247 264.57847919 45.73082948 264.54300618 C39.04518781 264.50874982 32.37802382 264.64323604 25.69625521 264.86106217 C19.88897988 265.04325185 14.08751769 265.10799387 8.27745056 265.08747995 C4.83644856 265.07682809 1.41003353 265.10573678 -2.02813506 265.253299 C-18.53215834 265.82544931 -30.35265234 262.52258016 -42.67468894 251.61184752 C-56.82883418 238.2623204 -60.88842529 224.87691668 -61.57656741 205.78885674 C-61.69001008 200.70088116 -61.65702711 195.61963222 -61.59527159 190.53115129 C-61.5615772 186.22669469 -61.62238188 181.92551305 -61.68268067 177.62150353 C-61.825051 167.44729753 -61.82602159 157.28029876 -61.72791076 147.10575032 C-61.62946587 136.69979817 -61.74391691 126.3121615 -61.9683885 115.90855294 C-62.15697697 106.8875936 -62.22512666 97.87118093 -62.19803292 88.8482911 C-62.18219228 83.49782423 -62.20449124 78.15602662 -62.33806968 72.80701566 C-62.80843242 51.77127006 -62.18703705 33.9919965 -47.10806847 18.00960064 C-33.04254828 4.04329897 -19.97840464 -0.85737676 0 0 Z " fill="#010101" transform="translate(235.46497130393982,248.33248209953308)"/>
</svg>
